{
    "asset" : {
        "generator" : "Khronos glTF Blender I/O v3.2.40",
        "version" : "2.0"
    },
    "scene" : 0,
    "scenes" : [
        {
            "extras" : {
                "s_output" : "exporting...",
                "b_export" : 1,
                "export_path" : "C:\\Users\\18629\\Desktop\\",
                "b_bake_lightmap" : 0,
                "b_use_lightmapper" : 0,
                "b_renderer" : 1,
                "b_aa" : 0,
                "b_colorManagement" : 0,
                "b_settings" : 1,
                "b_player" : 1,
                "f_player_speed" : 2.4699997901916504,
                "b_raycast" : 1,
                "matlib" : {},
                "b_cubemap_background" : 1,
                "b_show_env_sky" : 1
            },
            "name" : "Scene",
            "nodes" : [
                0
            ]
        }
    ],
    "nodes" : [
        {
            "mesh" : 0,
            "name" : "Cube.001",
            "rotation" : [
                0,
                1,
                0,
                0
            ],
            "scale" : [
                -18.968461990356445,
                -48.471435546875,
                -27.192733764648438
            ]
        }
    ],
    "animations" : [
        {
            "channels" : [
                {
                    "sampler" : 0,
                    "target" : {
                        "node" : 0,
                        "path" : "translation"
                    }
                },
                {
                    "sampler" : 1,
                    "target" : {
                        "node" : 0,
                        "path" : "rotation"
                    }
                },
                {
                    "sampler" : 2,
                    "target" : {
                        "node" : 0,
                        "path" : "scale"
                    }
                }
            ],
            "name" : "Cube.001",
            "samplers" : [
                {
                    "input" : 8,
                    "interpolation" : "LINEAR",
                    "output" : 9
                },
                {
                    "input" : 8,
                    "interpolation" : "LINEAR",
                    "output" : 10
                },
                {
                    "input" : 8,
                    "interpolation" : "LINEAR",
                    "output" : 11
                }
            ]
        }
    ],
    "materials" : [
        {
            "doubleSided" : true,
            "name" : "Material.002",
            "pbrMetallicRoughness" : {
                "baseColorFactor" : [
                    0.10653278976678848,
                    0.06754496693611145,
                    0.02406684122979641,
                    1
                ],
                "metallicFactor" : 0,
                "roughnessFactor" : 0.5
            }
        },
        {
            "doubleSided" : true,
            "name" : "Material.003",
            "pbrMetallicRoughness" : {}
        }
    ],
    "meshes" : [
        {
            "name" : "Cube.001",
            "primitives" : [
                {
                    "attributes" : {
                        "POSITION" : 0,
                        "NORMAL" : 1,
                        "TEXCOORD_0" : 2
                    },
                    "indices" : 3,
                    "material" : 0
                },
                {
                    "attributes" : {
                        "POSITION" : 4,
                        "NORMAL" : 5,
                        "TEXCOORD_0" : 6
                    },
                    "indices" : 7,
                    "material" : 1
                }
            ]
        }
    ],
    "accessors" : [
        {
            "bufferView" : 0,
            "componentType" : 5126,
            "count" : 993,
            "max" : [
                1.19153892993927,
                1.4579170942306519,
                1.0309065580368042
            ],
            "min" : [
                -2.0122313499450684,
                -1.506022572517395,
                -0.9690934419631958
            ],
            "type" : "VEC3"
        },
        {
            "bufferView" : 1,
            "componentType" : 5126,
            "count" : 993,
            "type" : "VEC3"
        },
        {
            "bufferView" : 2,
            "componentType" : 5126,
            "count" : 993,
            "type" : "VEC2"
        },
        {
            "bufferView" : 3,
            "componentType" : 5123,
            "count" : 1824,
            "type" : "SCALAR"
        },
        {
            "bufferView" : 4,
            "componentType" : 5126,
            "count" : 375,
            "max" : [
                1.19153892993927,
                1.4579170942306519,
                1.0309065580368042
            ],
            "min" : [
                0.5896539688110352,
                -1.506022572517395,
                -0.9690934419631958
            ],
            "type" : "VEC3"
        },
        {
            "bufferView" : 5,
            "componentType" : 5126,
            "count" : 375,
            "type" : "VEC3"
        },
        {
            "bufferView" : 6,
            "componentType" : 5126,
            "count" : 375,
            "type" : "VEC2"
        },
        {
            "bufferView" : 7,
            "componentType" : 5123,
            "count" : 612,
            "type" : "SCALAR"
        },
        {
            "bufferView" : 8,
            "componentType" : 5126,
            "count" : 2,
            "max" : [
                0.041666666666666664
            ],
            "min" : [
                0
            ],
            "type" : "SCALAR"
        },
        {
            "bufferView" : 9,
            "componentType" : 5126,
            "count" : 2,
            "type" : "VEC3"
        },
        {
            "bufferView" : 10,
            "componentType" : 5126,
            "count" : 2,
            "type" : "VEC4"
        },
        {
            "bufferView" : 11,
            "componentType" : 5126,
            "count" : 2,
            "type" : "VEC3"
        }
    ],
    "bufferViews" : [
        {
            "buffer" : 0,
            "byteLength" : 11916,
            "byteOffset" : 0
        },
        {
            "buffer" : 0,
            "byteLength" : 11916,
            "byteOffset" : 11916
        },
        {
            "buffer" : 0,
            "byteLength" : 7944,
            "byteOffset" : 23832
        },
        {
            "buffer" : 0,
            "byteLength" : 3648,
            "byteOffset" : 31776
        },
        {
            "buffer" : 0,
            "byteLength" : 4500,
            "byteOffset" : 35424
        },
        {
            "buffer" : 0,
            "byteLength" : 4500,
            "byteOffset" : 39924
        },
        {
            "buffer" : 0,
            "byteLength" : 3000,
            "byteOffset" : 44424
        },
        {
            "buffer" : 0,
            "byteLength" : 1224,
            "byteOffset" : 47424
        },
        {
            "buffer" : 0,
            "byteLength" : 8,
            "byteOffset" : 48648
        },
        {
            "buffer" : 0,
            "byteLength" : 24,
            "byteOffset" : 48656
        },
        {
            "buffer" : 0,
            "byteLength" : 32,
            "byteOffset" : 48680
        },
        {
            "buffer" : 0,
            "byteLength" : 24,
            "byteOffset" : 48712
        }
    ],
    "buffers" : [
        {
            "byteLength" : 48736,
            "uri" : "data:application/octet-stream;base64,"
        }
    ]
}
