{
    "asset" : {
        "generator" : "Khronos glTF Blender I/O v3.2.40",
        "version" : "2.0"
    },
    "scene" : 0,
    "scenes" : [
        {
            "extras" : {
                "s_output" : "exporting...",
                "b_export" : 1,
                "export_path" : "C:\\Users\\18629\\Desktop\\",
                "b_bake_lightmap" : 0,
                "b_use_lightmapper" : 0,
                "b_renderer" : 1,
                "b_aa" : 0,
                "b_colorManagement" : 0,
                "b_settings" : 1,
                "b_player" : 1,
                "f_player_speed" : 2.4699997901916504,
                "b_raycast" : 1,
                "matlib" : {},
                "b_cubemap_background" : 1,
                "b_show_env_sky" : 1
            },
            "name" : "Scene",
            "nodes" : [
                0
            ]
        }
    ],
    "nodes" : [
        {
            "mesh" : 0,
            "name" : "Cube.004",
            "scale" : [
                -82.85003662109375,
                -43.41254806518555,
                -82.85003662109375
            ]
        }
    ],
    "animations" : [
        {
            "channels" : [
                {
                    "sampler" : 0,
                    "target" : {
                        "node" : 0,
                        "path" : "translation"
                    }
                },
                {
                    "sampler" : 1,
                    "target" : {
                        "node" : 0,
                        "path" : "rotation"
                    }
                },
                {
                    "sampler" : 2,
                    "target" : {
                        "node" : 0,
                        "path" : "scale"
                    }
                }
            ],
            "name" : "Cube.004",
            "samplers" : [
                {
                    "input" : 10,
                    "interpolation" : "LINEAR",
                    "output" : 11
                },
                {
                    "input" : 10,
                    "interpolation" : "LINEAR",
                    "output" : 12
                },
                {
                    "input" : 10,
                    "interpolation" : "LINEAR",
                    "output" : 13
                }
            ]
        }
    ],
    "materials" : [
        {
            "doubleSided" : true,
            "name" : "Material.010",
            "pbrMetallicRoughness" : {
                "baseColorFactor" : [
                    0.800000011920929,
                    0.800000011920929,
                    0.800000011920929,
                    1
                ],
                "metallicFactor" : 0,
                "roughnessFactor" : 0.5
            }
        },
        {
            "doubleSided" : true,
            "emissiveFactor" : [
                0.0005435321343453398,
                1,
                1
            ],
            "name" : "Material.011",
            "pbrMetallicRoughness" : {
                "baseColorFactor" : [
                    0,
                    0,
                    0,
                    1
                ]
            }
        }
    ],
    "meshes" : [
        {
            "name" : "Cube.011",
            "primitives" : [
                {
                    "attributes" : {
                        "POSITION" : 0,
                        "NORMAL" : 1,
                        "TANGENT" : 2,
                        "TEXCOORD_0" : 3
                    },
                    "indices" : 4,
                    "material" : 0
                },
                {
                    "attributes" : {
                        "POSITION" : 5,
                        "NORMAL" : 6,
                        "TANGENT" : 7,
                        "TEXCOORD_0" : 8
                    },
                    "indices" : 9,
                    "material" : 1
                }
            ]
        }
    ],
    "accessors" : [
        {
            "bufferView" : 0,
            "componentType" : 5126,
            "count" : 178,
            "max" : [
                1.058487892150879,
                0.8857303857803345,
                1.55214262008667
            ],
            "min" : [
                -0.9415122270584106,
                -1.1142698526382446,
                -0.7001333236694336
            ],
            "type" : "VEC3"
        },
        {
            "bufferView" : 1,
            "componentType" : 5126,
            "count" : 178,
            "type" : "VEC3"
        },
        {
            "bufferView" : 2,
            "componentType" : 5126,
            "count" : 178,
            "type" : "VEC4"
        },
        {
            "bufferView" : 3,
            "componentType" : 5126,
            "count" : 178,
            "type" : "VEC2"
        },
        {
            "bufferView" : 4,
            "componentType" : 5123,
            "count" : 306,
            "type" : "SCALAR"
        },
        {
            "bufferView" : 5,
            "componentType" : 5126,
            "count" : 16,
            "max" : [
                0.8088020086288452,
                -0.14196543395519257,
                -0.6334484219551086
            ],
            "min" : [
                -0.691826581954956,
                -1.1142698526382446,
                -0.7001333236694336
            ],
            "type" : "VEC3"
        },
        {
            "bufferView" : 6,
            "componentType" : 5126,
            "count" : 16,
            "type" : "VEC3"
        },
        {
            "bufferView" : 7,
            "componentType" : 5126,
            "count" : 16,
            "type" : "VEC4"
        },
        {
            "bufferView" : 8,
            "componentType" : 5126,
            "count" : 16,
            "type" : "VEC2"
        },
        {
            "bufferView" : 9,
            "componentType" : 5123,
            "count" : 24,
            "type" : "SCALAR"
        },
        {
            "bufferView" : 10,
            "componentType" : 5126,
            "count" : 2,
            "max" : [
                0.041666666666666664
            ],
            "min" : [
                0
            ],
            "type" : "SCALAR"
        },
        {
            "bufferView" : 11,
            "componentType" : 5126,
            "count" : 2,
            "type" : "VEC3"
        },
        {
            "bufferView" : 12,
            "componentType" : 5126,
            "count" : 2,
            "type" : "VEC4"
        },
        {
            "bufferView" : 13,
            "componentType" : 5126,
            "count" : 2,
            "type" : "VEC3"
        }
    ],
    "bufferViews" : [
        {
            "buffer" : 0,
            "byteLength" : 2136,
            "byteOffset" : 0
        },
        {
            "buffer" : 0,
            "byteLength" : 2136,
            "byteOffset" : 2136
        },
        {
            "buffer" : 0,
            "byteLength" : 2848,
            "byteOffset" : 4272
        },
        {
            "buffer" : 0,
            "byteLength" : 1424,
            "byteOffset" : 7120
        },
        {
            "buffer" : 0,
            "byteLength" : 612,
            "byteOffset" : 8544
        },
        {
            "buffer" : 0,
            "byteLength" : 192,
            "byteOffset" : 9156
        },
        {
            "buffer" : 0,
            "byteLength" : 192,
            "byteOffset" : 9348
        },
        {
            "buffer" : 0,
            "byteLength" : 256,
            "byteOffset" : 9540
        },
        {
            "buffer" : 0,
            "byteLength" : 128,
            "byteOffset" : 9796
        },
        {
            "buffer" : 0,
            "byteLength" : 48,
            "byteOffset" : 9924
        },
        {
            "buffer" : 0,
            "byteLength" : 8,
            "byteOffset" : 9972
        },
        {
            "buffer" : 0,
            "byteLength" : 24,
            "byteOffset" : 9980
        },
        {
            "buffer" : 0,
            "byteLength" : 32,
            "byteOffset" : 10004
        },
        {
            "buffer" : 0,
            "byteLength" : 24,
            "byteOffset" : 10036
        }
    ],
    "buffers" : [
        {
            "byteLength" : 10060,
            "uri" : "data:application/octet-stream;base64,"
        }
    ]
}
