{
    "asset" : {
        "generator" : "Khronos glTF Blender I/O v3.2.40",
        "version" : "2.0"
    },
    "scene" : 0,
    "scenes" : [
        {
            "extras" : {
                "s_output" : "exporting...",
                "b_export" : 1,
                "export_path" : "C:\\Users\\18629\\Desktop\\",
                "b_bake_lightmap" : 0,
                "b_use_lightmapper" : 0,
                "b_renderer" : 1,
                "b_aa" : 0,
                "b_colorManagement" : 0,
                "b_settings" : 1,
                "b_player" : 1,
                "f_player_speed" : 2.4699997901916504,
                "b_raycast" : 1,
                "matlib" : {},
                "b_cubemap_background" : 1,
                "b_show_env_sky" : 1
            },
            "name" : "Scene",
            "nodes" : [
                0
            ]
        }
    ],
    "nodes" : [
        {
            "mesh" : 0,
            "name" : "Curve.007",
            "rotation" : [
                0.548703670501709,
                0.4534936547279358,
                0.44775986671447754,
                0.5410904884338379
            ],
            "scale" : [
                121.3672103881836,
                121.3672103881836,
                121.36720275878906
            ]
        }
    ],
    "animations" : [
        {
            "channels" : [
                {
                    "sampler" : 0,
                    "target" : {
                        "node" : 0,
                        "path" : "translation"
                    }
                },
                {
                    "sampler" : 1,
                    "target" : {
                        "node" : 0,
                        "path" : "rotation"
                    }
                },
                {
                    "sampler" : 2,
                    "target" : {
                        "node" : 0,
                        "path" : "scale"
                    }
                }
            ],
            "name" : "Curve.007",
            "samplers" : [
                {
                    "input" : 20,
                    "interpolation" : "LINEAR",
                    "output" : 21
                },
                {
                    "input" : 20,
                    "interpolation" : "LINEAR",
                    "output" : 22
                },
                {
                    "input" : 20,
                    "interpolation" : "LINEAR",
                    "output" : 23
                }
            ]
        }
    ],
    "materials" : [
        {
            "doubleSided" : true,
            "emissiveFactor" : [
                0.9555230524824196,
                0.8731594518924055,
                0.14534675208647485
            ],
            "name" : "Material.005",
            "pbrMetallicRoughness" : {
                "baseColorFactor" : [
                    0.8000000715255737,
                    0.5942033529281616,
                    0.011521914042532444,
                    1
                ],
                "metallicFactor" : 0,
                "roughnessFactor" : 0.5
            }
        },
        {
            "doubleSided" : true,
            "emissiveFactor" : [
                0.8078749884017569,
                0.03387047909762009,
                0.04006687596238878
            ],
            "name" : "Material.006",
            "pbrMetallicRoughness" : {
                "baseColorFactor" : [
                    0.8000000715255737,
                    0.014762522652745247,
                    0.02643539197742939,
                    1
                ],
                "metallicFactor" : 0,
                "roughnessFactor" : 0.5
            }
        },
        {
            "doubleSided" : true,
            "emissiveFactor" : [
                1,
                1,
                0.29398105180376355
            ],
            "name" : "Material.007",
            "pbrMetallicRoughness" : {
                "baseColorFactor" : [
                    0.8000000715255737,
                    0.32511255145072937,
                    0.0006508224760182202,
                    1
                ],
                "metallicFactor" : 0,
                "roughnessFactor" : 0.5
            }
        },
        {
            "doubleSided" : true,
            "emissiveFactor" : [
                1,
                1,
                0.4665520609356868
            ],
            "name" : "Material.008",
            "pbrMetallicRoughness" : {
                "baseColorFactor" : [
                    0.45641112327575684,
                    0.18782080709934235,
                    0,
                    1
                ],
                "metallicFactor" : 0,
                "roughnessFactor" : 0.5
            }
        }
    ],
    "meshes" : [
        {
            "name" : "Curve.007",
            "primitives" : [
                {
                    "attributes" : {
                        "POSITION" : 0,
                        "NORMAL" : 1,
                        "TANGENT" : 2,
                        "TEXCOORD_0" : 3
                    },
                    "indices" : 4,
                    "material" : 0
                },
                {
                    "attributes" : {
                        "POSITION" : 5,
                        "NORMAL" : 6,
                        "TANGENT" : 7,
                        "TEXCOORD_0" : 8
                    },
                    "indices" : 9,
                    "material" : 1
                },
                {
                    "attributes" : {
                        "POSITION" : 10,
                        "NORMAL" : 11,
                        "TANGENT" : 12,
                        "TEXCOORD_0" : 13
                    },
                    "indices" : 14,
                    "material" : 2
                },
                {
                    "attributes" : {
                        "POSITION" : 15,
                        "NORMAL" : 16,
                        "TANGENT" : 17,
                        "TEXCOORD_0" : 18
                    },
                    "indices" : 19,
                    "material" : 3
                }
            ]
        }
    ],
    "accessors" : [
        {
            "bufferView" : 0,
            "componentType" : 5126,
            "count" : 5213,
            "max" : [
                0.060092318803071976,
                -2.3275017156265676e-05,
                0.09271854907274246
            ],
            "min" : [
                -0.05355832353234291,
                -0.008568036369979382,
                -0.051751092076301575
            ],
            "type" : "VEC3"
        },
        {
            "bufferView" : 1,
            "componentType" : 5126,
            "count" : 5213,
            "type" : "VEC3"
        },
        {
            "bufferView" : 2,
            "componentType" : 5126,
            "count" : 5213,
            "type" : "VEC4"
        },
        {
            "bufferView" : 3,
            "componentType" : 5126,
            "count" : 5213,
            "type" : "VEC2"
        },
        {
            "bufferView" : 4,
            "componentType" : 5123,
            "count" : 7599,
            "type" : "SCALAR"
        },
        {
            "bufferView" : 5,
            "componentType" : 5126,
            "count" : 10796,
            "max" : [
                0.0339108370244503,
                0.0069496165961027145,
                0.046762362122535706
            ],
            "min" : [
                -0.018621671944856644,
                0.0008812652667984366,
                -0.005762448534369469
            ],
            "type" : "VEC3"
        },
        {
            "bufferView" : 6,
            "componentType" : 5126,
            "count" : 10796,
            "type" : "VEC3"
        },
        {
            "bufferView" : 7,
            "componentType" : 5126,
            "count" : 10796,
            "type" : "VEC4"
        },
        {
            "bufferView" : 8,
            "componentType" : 5126,
            "count" : 10796,
            "type" : "VEC2"
        },
        {
            "bufferView" : 9,
            "componentType" : 5123,
            "count" : 13500,
            "type" : "SCALAR"
        },
        {
            "bufferView" : 10,
            "componentType" : 5126,
            "count" : 7504,
            "max" : [
                0.060092438012361526,
                0.0010901045752689242,
                -0.00582197867333889
            ],
            "min" : [
                -0.05355832353234291,
                -0.007454653736203909,
                -0.051751092076301575
            ],
            "type" : "VEC3"
        },
        {
            "bufferView" : 11,
            "componentType" : 5126,
            "count" : 7504,
            "type" : "VEC3"
        },
        {
            "bufferView" : 12,
            "componentType" : 5126,
            "count" : 7504,
            "type" : "VEC4"
        },
        {
            "bufferView" : 13,
            "componentType" : 5126,
            "count" : 7504,
            "type" : "VEC2"
        },
        {
            "bufferView" : 14,
            "componentType" : 5123,
            "count" : 10224,
            "type" : "SCALAR"
        },
        {
            "bufferView" : 15,
            "componentType" : 5126,
            "count" : 4186,
            "max" : [
                0.003267647000029683,
                0.002473945962265134,
                -0.005836872383952141
            ],
            "min" : [
                -0.05355832353234291,
                -0.006070813629776239,
                -0.051750242710113525
            ],
            "type" : "VEC3"
        },
        {
            "bufferView" : 16,
            "componentType" : 5126,
            "count" : 4186,
            "type" : "VEC3"
        },
        {
            "bufferView" : 17,
            "componentType" : 5126,
            "count" : 4186,
            "type" : "VEC4"
        },
        {
            "bufferView" : 18,
            "componentType" : 5126,
            "count" : 4186,
            "type" : "VEC2"
        },
        {
            "bufferView" : 19,
            "componentType" : 5123,
            "count" : 5328,
            "type" : "SCALAR"
        },
        {
            "bufferView" : 20,
            "componentType" : 5126,
            "count" : 2,
            "max" : [
                0.041666666666666664
            ],
            "min" : [
                0
            ],
            "type" : "SCALAR"
        },
        {
            "bufferView" : 21,
            "componentType" : 5126,
            "count" : 2,
            "type" : "VEC3"
        },
        {
            "bufferView" : 22,
            "componentType" : 5126,
            "count" : 2,
            "type" : "VEC4"
        },
        {
            "bufferView" : 23,
            "componentType" : 5126,
            "count" : 2,
            "type" : "VEC3"
        }
    ],
    "bufferViews" : [
        {
            "buffer" : 0,
            "byteLength" : 62556,
            "byteOffset" : 0
        },
        {
            "buffer" : 0,
            "byteLength" : 62556,
            "byteOffset" : 62556
        },
        {
            "buffer" : 0,
            "byteLength" : 83408,
            "byteOffset" : 125112
        },
        {
            "buffer" : 0,
            "byteLength" : 41704,
            "byteOffset" : 208520
        },
        {
            "buffer" : 0,
            "byteLength" : 15198,
            "byteOffset" : 250224
        },
        {
            "buffer" : 0,
            "byteLength" : 129552,
            "byteOffset" : 265424
        },
        {
            "buffer" : 0,
            "byteLength" : 129552,
            "byteOffset" : 394976
        },
        {
            "buffer" : 0,
            "byteLength" : 172736,
            "byteOffset" : 524528
        },
        {
            "buffer" : 0,
            "byteLength" : 86368,
            "byteOffset" : 697264
        },
        {
            "buffer" : 0,
            "byteLength" : 27000,
            "byteOffset" : 783632
        },
        {
            "buffer" : 0,
            "byteLength" : 90048,
            "byteOffset" : 810632
        },
        {
            "buffer" : 0,
            "byteLength" : 90048,
            "byteOffset" : 900680
        },
        {
            "buffer" : 0,
            "byteLength" : 120064,
            "byteOffset" : 990728
        },
        {
            "buffer" : 0,
            "byteLength" : 60032,
            "byteOffset" : 1110792
        },
        {
            "buffer" : 0,
            "byteLength" : 20448,
            "byteOffset" : 1170824
        },
        {
            "buffer" : 0,
            "byteLength" : 50232,
            "byteOffset" : 1191272
        },
        {
            "buffer" : 0,
            "byteLength" : 50232,
            "byteOffset" : 1241504
        },
        {
            "buffer" : 0,
            "byteLength" : 66976,
            "byteOffset" : 1291736
        },
        {
            "buffer" : 0,
            "byteLength" : 33488,
            "byteOffset" : 1358712
        },
        {
            "buffer" : 0,
            "byteLength" : 10656,
            "byteOffset" : 1392200
        },
        {
            "buffer" : 0,
            "byteLength" : 8,
            "byteOffset" : 1402856
        },
        {
            "buffer" : 0,
            "byteLength" : 24,
            "byteOffset" : 1402864
        },
        {
            "buffer" : 0,
            "byteLength" : 32,
            "byteOffset" : 1402888
        },
        {
            "buffer" : 0,
            "byteLength" : 24,
            "byteOffset" : 1402920
        }
    ],
    "buffers" : [
        {
            "byteLength" : 1402944,
            "uri" : "data:application/octet-stream;base64,"
        }
    ]
}
