{
    "asset" : {
        "generator" : "Khronos glTF Blender I/O v3.2.40",
        "version" : "2.0"
    },
    "scene" : 0,
    "scenes" : [
        {
            "extras" : {
                "b_settings" : 1,
                "b_use_default_lights" : 1,
                "b_cast_shadows" : 1,
                "b_export" : 1,
                "export_path" : "C:\\Users\\18629\\Desktop\\",
                "s_output" : "exporting...",
                "b_interactive" : 1,
                "b_player" : 1,
                "b_joystick" : 0,
                "b_stats" : 0,
                "b_vr_controllers" : 1,
                "f_player_speed" : 6.099999904632568,
                "dynamic_sky_name" : "Dynamic_1",
                "b_show_env_sky" : 0,
                "b_cubemap_background" : 1,
                "b_renderer" : 1,
                "b_aa" : 1,
                "b_colorManagement" : 1
            },
            "name" : "Scene",
            "nodes" : [
                0
            ]
        }
    ],
    "nodes" : [
        {
            "mesh" : 0,
            "name" : "Plane.001",
            "scale" : [
                178.33309936523438,
                178.33309936523438,
                178.33309936523438
            ]
        }
    ],
    "animations" : [
        {
            "channels" : [
                {
                    "sampler" : 0,
                    "target" : {
                        "node" : 0,
                        "path" : "translation"
                    }
                },
                {
                    "sampler" : 1,
                    "target" : {
                        "node" : 0,
                        "path" : "rotation"
                    }
                },
                {
                    "sampler" : 2,
                    "target" : {
                        "node" : 0,
                        "path" : "scale"
                    }
                }
            ],
            "name" : "Plane.001",
            "samplers" : [
                {
                    "input" : 10,
                    "interpolation" : "LINEAR",
                    "output" : 11
                },
                {
                    "input" : 10,
                    "interpolation" : "LINEAR",
                    "output" : 12
                },
                {
                    "input" : 10,
                    "interpolation" : "LINEAR",
                    "output" : 13
                }
            ]
        }
    ],
    "materials" : [
        {
            "doubleSided" : true,
            "name" : "Material.002",
            "pbrMetallicRoughness" : {
                "baseColorFactor" : [
                    0.0385153703391552,
                    0.2981809973716736,
                    0.0003678004432003945,
                    1
                ],
                "metallicFactor" : 0,
                "roughnessFactor" : 0.5
            }
        },
        {
            "doubleSided" : true,
            "name" : "Material.006",
            "pbrMetallicRoughness" : {
                "baseColorFactor" : [
                    0.4079327881336212,
                    0.28836023807525635,
                    0.07955708354711533,
                    1
                ],
                "metallicFactor" : 0,
                "roughnessFactor" : 0.5
            }
        }
    ],
    "meshes" : [
        {
            "name" : "Plane.001",
            "primitives" : [
                {
                    "attributes" : {
                        "POSITION" : 0,
                        "NORMAL" : 1,
                        "TANGENT" : 2,
                        "TEXCOORD_0" : 3
                    },
                    "indices" : 4,
                    "material" : 0
                },
                {
                    "attributes" : {
                        "POSITION" : 5,
                        "NORMAL" : 6,
                        "TANGENT" : 7,
                        "TEXCOORD_0" : 8
                    },
                    "indices" : 9,
                    "material" : 1
                }
            ]
        }
    ],
    "accessors" : [
        {
            "bufferView" : 0,
            "componentType" : 5126,
            "count" : 8556,
            "max" : [
                1.1255700588226318,
                0.13249747455120087,
                1.0149964094161987
            ],
            "min" : [
                -1.0102283954620361,
                -0.24744974076747894,
                -1.096515417098999
            ],
            "type" : "VEC3"
        },
        {
            "bufferView" : 1,
            "componentType" : 5126,
            "count" : 8556,
            "type" : "VEC3"
        },
        {
            "bufferView" : 2,
            "componentType" : 5126,
            "count" : 8556,
            "type" : "VEC4"
        },
        {
            "bufferView" : 3,
            "componentType" : 5126,
            "count" : 8556,
            "type" : "VEC2"
        },
        {
            "bufferView" : 4,
            "componentType" : 5123,
            "count" : 14226,
            "type" : "SCALAR"
        },
        {
            "bufferView" : 5,
            "componentType" : 5126,
            "count" : 368,
            "max" : [
                0.15140320360660553,
                0.05288087576627731,
                0.8951610326766968
            ],
            "min" : [
                -0.1142762154340744,
                -0.034980013966560364,
                -0.24437204003334045
            ],
            "type" : "VEC3"
        },
        {
            "bufferView" : 6,
            "componentType" : 5126,
            "count" : 368,
            "type" : "VEC3"
        },
        {
            "bufferView" : 7,
            "componentType" : 5126,
            "count" : 368,
            "type" : "VEC4"
        },
        {
            "bufferView" : 8,
            "componentType" : 5126,
            "count" : 368,
            "type" : "VEC2"
        },
        {
            "bufferView" : 9,
            "componentType" : 5123,
            "count" : 564,
            "type" : "SCALAR"
        },
        {
            "bufferView" : 10,
            "componentType" : 5126,
            "count" : 251,
            "max" : [
                10.416666666666666
            ],
            "min" : [
                0
            ],
            "type" : "SCALAR"
        },
        {
            "bufferView" : 11,
            "componentType" : 5126,
            "count" : 251,
            "type" : "VEC3"
        },
        {
            "bufferView" : 12,
            "componentType" : 5126,
            "count" : 251,
            "type" : "VEC4"
        },
        {
            "bufferView" : 13,
            "componentType" : 5126,
            "count" : 251,
            "type" : "VEC3"
        }
    ],
    "bufferViews" : [
        {
            "buffer" : 0,
            "byteLength" : 102672,
            "byteOffset" : 0
        },
        {
            "buffer" : 0,
            "byteLength" : 102672,
            "byteOffset" : 102672
        },
        {
            "buffer" : 0,
            "byteLength" : 136896,
            "byteOffset" : 205344
        },
        {
            "buffer" : 0,
            "byteLength" : 68448,
            "byteOffset" : 342240
        },
        {
            "buffer" : 0,
            "byteLength" : 28452,
            "byteOffset" : 410688
        },
        {
            "buffer" : 0,
            "byteLength" : 4416,
            "byteOffset" : 439140
        },
        {
            "buffer" : 0,
            "byteLength" : 4416,
            "byteOffset" : 443556
        },
        {
            "buffer" : 0,
            "byteLength" : 5888,
            "byteOffset" : 447972
        },
        {
            "buffer" : 0,
            "byteLength" : 2944,
            "byteOffset" : 453860
        },
        {
            "buffer" : 0,
            "byteLength" : 1128,
            "byteOffset" : 456804
        },
        {
            "buffer" : 0,
            "byteLength" : 1004,
            "byteOffset" : 457932
        },
        {
            "buffer" : 0,
            "byteLength" : 3012,
            "byteOffset" : 458936
        },
        {
            "buffer" : 0,
            "byteLength" : 4016,
            "byteOffset" : 461948
        },
        {
            "buffer" : 0,
            "byteLength" : 3012,
            "byteOffset" : 465964
        }
    ],
    "buffers" : [
        {
            "byteLength" : 468976,
            "uri" : "data:application/octet-stream;base64,"
        }
    ]
}
