{
    "asset" : {
        "generator" : "Khronos glTF Blender I/O v3.2.40",
        "version" : "2.0"
    },
    "scene" : 0,
    "scenes" : [
        {
            "extras" : {
                "b_settings" : 1,
                "b_use_default_lights" : 1,
                "b_cast_shadows" : 1,
                "b_export" : 1,
                "export_path" : "C:\\Users\\18629\\Desktop\\",
                "s_output" : "exporting...",
                "b_interactive" : 1,
                "b_player" : 1,
                "b_joystick" : 0,
                "b_stats" : 0,
                "b_vr_controllers" : 1,
                "f_player_speed" : 6.099999904632568
            },
            "name" : "Scene",
            "nodes" : [
                0
            ]
        }
    ],
    "nodes" : [
        {
            "mesh" : 0,
            "name" : "Plane.002",
            "scale" : [
                -34.576595306396484,
                -34.576595306396484,
                -34.576595306396484
            ]
        }
    ],
    "materials" : [
        {
            "doubleSided" : true,
            "name" : "Material.003",
            "pbrMetallicRoughness" : {
                "baseColorFactor" : [
                    0.16973881423473358,
                    0.0921393558382988,
                    0.0165787972509861,
                    1
                ],
                "metallicFactor" : 0,
                "roughnessFactor" : 0.5
            }
        }
    ],
    "meshes" : [
        {
            "name" : "Plane.002",
            "primitives" : [
                {
                    "attributes" : {
                        "POSITION" : 0,
                        "NORMAL" : 1,
                        "TANGENT" : 2,
                        "TEXCOORD_0" : 3
                    },
                    "indices" : 4,
                    "material" : 0
                }
            ]
        }
    ],
    "accessors" : [
        {
            "bufferView" : 0,
            "componentType" : 5126,
            "count" : 162,
            "max" : [
                0.19493408501148224,
                0.5176537036895752,
                0.14532938599586487
            ],
            "min" : [
                -0.1705373376607895,
                -0.6702689528465271,
                -0.14531657099723816
            ],
            "type" : "VEC3"
        },
        {
            "bufferView" : 1,
            "componentType" : 5126,
            "count" : 162,
            "type" : "VEC3"
        },
        {
            "bufferView" : 2,
            "componentType" : 5126,
            "count" : 162,
            "type" : "VEC4"
        },
        {
            "bufferView" : 3,
            "componentType" : 5126,
            "count" : 162,
            "type" : "VEC2"
        },
        {
            "bufferView" : 4,
            "componentType" : 5123,
            "count" : 960,
            "type" : "SCALAR"
        }
    ],
    "bufferViews" : [
        {
            "buffer" : 0,
            "byteLength" : 1944,
            "byteOffset" : 0
        },
        {
            "buffer" : 0,
            "byteLength" : 1944,
            "byteOffset" : 1944
        },
        {
            "buffer" : 0,
            "byteLength" : 2592,
            "byteOffset" : 3888
        },
        {
            "buffer" : 0,
            "byteLength" : 1296,
            "byteOffset" : 6480
        },
        {
            "buffer" : 0,
            "byteLength" : 1920,
            "byteOffset" : 7776
        }
    ],
    "buffers" : [
        {
            "byteLength" : 9696,
            "uri" : "data:application/octet-stream;base64,"
        }
    ]
}
