{
    "asset" : {
        "generator" : "Khronos glTF Blender I/O v3.2.40",
        "version" : "2.0"
    },
    "scene" : 0,
    "scenes" : [
        {
            "extras" : {
                "b_settings" : 1,
                "b_use_default_lights" : 1,
                "b_cast_shadows" : 1,
                "b_export" : 1,
                "export_path" : "C:\\Users\\18629\\Desktop\\",
                "s_output" : "exporting...",
                "b_interactive" : 1,
                "b_player" : 1,
                "b_joystick" : 0,
                "b_stats" : 0,
                "b_vr_controllers" : 1,
                "f_player_speed" : 6.099999904632568,
                "dynamic_sky_name" : "Dynamic_1",
                "b_show_env_sky" : 0,
                "b_cubemap_background" : 1,
                "b_renderer" : 1,
                "b_aa" : 1,
                "b_colorManagement" : 1
            },
            "name" : "Scene",
            "nodes" : [
                0
            ]
        }
    ],
    "nodes" : [
        {
            "mesh" : 0,
            "name" : "Plane",
            "scale" : [
                -34.576595306396484,
                -34.576595306396484,
                -34.576595306396484
            ]
        }
    ],
    "animations" : [
        {
            "channels" : [
                {
                    "sampler" : 0,
                    "target" : {
                        "node" : 0,
                        "path" : "translation"
                    }
                },
                {
                    "sampler" : 1,
                    "target" : {
                        "node" : 0,
                        "path" : "rotation"
                    }
                },
                {
                    "sampler" : 2,
                    "target" : {
                        "node" : 0,
                        "path" : "scale"
                    }
                }
            ],
            "name" : "Plane",
            "samplers" : [
                {
                    "input" : 5,
                    "interpolation" : "LINEAR",
                    "output" : 6
                },
                {
                    "input" : 5,
                    "interpolation" : "LINEAR",
                    "output" : 7
                },
                {
                    "input" : 5,
                    "interpolation" : "LINEAR",
                    "output" : 8
                }
            ]
        }
    ],
    "materials" : [
        {
            "doubleSided" : true,
            "name" : "Material.003",
            "pbrMetallicRoughness" : {
                "baseColorFactor" : [
                    0.16973881423473358,
                    0.0921393558382988,
                    0.0165787972509861,
                    1
                ],
                "metallicFactor" : 0,
                "roughnessFactor" : 0.5
            }
        }
    ],
    "meshes" : [
        {
            "name" : "Plane",
            "primitives" : [
                {
                    "attributes" : {
                        "POSITION" : 0,
                        "NORMAL" : 1,
                        "TANGENT" : 2,
                        "TEXCOORD_0" : 3
                    },
                    "indices" : 4,
                    "material" : 0
                }
            ]
        }
    ],
    "accessors" : [
        {
            "bufferView" : 0,
            "componentType" : 5126,
            "count" : 178,
            "max" : [
                0.6089315414428711,
                1.3628345727920532,
                0.5638104677200317
            ],
            "min" : [
                -0.5186519026756287,
                -0.8967666029930115,
                -0.5637729167938232
            ],
            "type" : "VEC3"
        },
        {
            "bufferView" : 1,
            "componentType" : 5126,
            "count" : 178,
            "type" : "VEC3"
        },
        {
            "bufferView" : 2,
            "componentType" : 5126,
            "count" : 178,
            "type" : "VEC4"
        },
        {
            "bufferView" : 3,
            "componentType" : 5126,
            "count" : 178,
            "type" : "VEC2"
        },
        {
            "bufferView" : 4,
            "componentType" : 5123,
            "count" : 1056,
            "type" : "SCALAR"
        },
        {
            "bufferView" : 5,
            "componentType" : 5126,
            "count" : 251,
            "max" : [
                10.416666666666666
            ],
            "min" : [
                0
            ],
            "type" : "SCALAR"
        },
        {
            "bufferView" : 6,
            "componentType" : 5126,
            "count" : 251,
            "type" : "VEC3"
        },
        {
            "bufferView" : 7,
            "componentType" : 5126,
            "count" : 251,
            "type" : "VEC4"
        },
        {
            "bufferView" : 8,
            "componentType" : 5126,
            "count" : 251,
            "type" : "VEC3"
        }
    ],
    "bufferViews" : [
        {
            "buffer" : 0,
            "byteLength" : 2136,
            "byteOffset" : 0
        },
        {
            "buffer" : 0,
            "byteLength" : 2136,
            "byteOffset" : 2136
        },
        {
            "buffer" : 0,
            "byteLength" : 2848,
            "byteOffset" : 4272
        },
        {
            "buffer" : 0,
            "byteLength" : 1424,
            "byteOffset" : 7120
        },
        {
            "buffer" : 0,
            "byteLength" : 2112,
            "byteOffset" : 8544
        },
        {
            "buffer" : 0,
            "byteLength" : 1004,
            "byteOffset" : 10656
        },
        {
            "buffer" : 0,
            "byteLength" : 3012,
            "byteOffset" : 11660
        },
        {
            "buffer" : 0,
            "byteLength" : 4016,
            "byteOffset" : 14672
        },
        {
            "buffer" : 0,
            "byteLength" : 3012,
            "byteOffset" : 18688
        }
    ],
    "buffers" : [
        {
            "byteLength" : 21700,
            "uri" : "data:application/octet-stream;base64,"
        }
    ]
}
