{
    "asset" : {
        "generator" : "Khronos glTF Blender I/O v3.2.40",
        "version" : "2.0"
    },
    "scene" : 0,
    "scenes" : [
        {
            "extras" : {
                "s_output" : "exporting...",
                "b_export" : 1,
                "export_path" : "C:\\Users\\18629\\Desktop\\",
                "b_bake_lightmap" : 0,
                "b_use_lightmapper" : 0,
                "b_renderer" : 1,
                "b_aa" : 0,
                "b_colorManagement" : 0,
                "b_settings" : 1,
                "b_player" : 1,
                "f_player_speed" : 2.4699997901916504,
                "b_raycast" : 1,
                "matlib" : {},
                "b_cubemap_background" : 1,
                "b_show_env_sky" : 1
            },
            "name" : "Scene",
            "nodes" : [
                0
            ]
        }
    ],
    "nodes" : [
        {
            "mesh" : 0,
            "name" : "Text.001",
            "rotation" : [
                0,
                -0.7071068286895752,
                -0.7071068286895752,
                0
            ],
            "scale" : [
                -11.64205265045166,
                -2.844822406768799,
                -11.64205265045166
            ]
        }
    ],
    "animations" : [
        {
            "channels" : [
                {
                    "sampler" : 0,
                    "target" : {
                        "node" : 0,
                        "path" : "translation"
                    }
                },
                {
                    "sampler" : 1,
                    "target" : {
                        "node" : 0,
                        "path" : "rotation"
                    }
                },
                {
                    "sampler" : 2,
                    "target" : {
                        "node" : 0,
                        "path" : "scale"
                    }
                }
            ],
            "name" : "Text.001",
            "samplers" : [
                {
                    "input" : 5,
                    "interpolation" : "LINEAR",
                    "output" : 6
                },
                {
                    "input" : 5,
                    "interpolation" : "LINEAR",
                    "output" : 7
                },
                {
                    "input" : 5,
                    "interpolation" : "LINEAR",
                    "output" : 8
                }
            ]
        }
    ],
    "materials" : [
        {
            "doubleSided" : true,
            "emissiveFactor" : [
                1,
                0.1473369556479156,
                0.7417740393429995
            ],
            "name" : "Material.009",
            "pbrMetallicRoughness" : {
                "baseColorFactor" : [
                    0,
                    0,
                    0,
                    1
                ]
            }
        }
    ],
    "meshes" : [
        {
            "name" : "Text.001",
            "primitives" : [
                {
                    "attributes" : {
                        "POSITION" : 0,
                        "NORMAL" : 1,
                        "TANGENT" : 2,
                        "TEXCOORD_0" : 3
                    },
                    "indices" : 4,
                    "material" : 0
                }
            ]
        }
    ],
    "accessors" : [
        {
            "bufferView" : 0,
            "componentType" : 5126,
            "count" : 5078,
            "max" : [
                2.464721441268921,
                0.30000001192092896,
                0.2908765375614166
            ],
            "min" : [
                -3.173279047012329,
                -0.30000001192092896,
                -0.4341234862804413
            ],
            "type" : "VEC3"
        },
        {
            "bufferView" : 1,
            "componentType" : 5126,
            "count" : 5078,
            "type" : "VEC3"
        },
        {
            "bufferView" : 2,
            "componentType" : 5126,
            "count" : 5078,
            "type" : "VEC4"
        },
        {
            "bufferView" : 3,
            "componentType" : 5126,
            "count" : 5078,
            "type" : "VEC2"
        },
        {
            "bufferView" : 4,
            "componentType" : 5123,
            "count" : 9624,
            "type" : "SCALAR"
        },
        {
            "bufferView" : 5,
            "componentType" : 5126,
            "count" : 2,
            "max" : [
                0.041666666666666664
            ],
            "min" : [
                0
            ],
            "type" : "SCALAR"
        },
        {
            "bufferView" : 6,
            "componentType" : 5126,
            "count" : 2,
            "type" : "VEC3"
        },
        {
            "bufferView" : 7,
            "componentType" : 5126,
            "count" : 2,
            "type" : "VEC4"
        },
        {
            "bufferView" : 8,
            "componentType" : 5126,
            "count" : 2,
            "type" : "VEC3"
        }
    ],
    "bufferViews" : [
        {
            "buffer" : 0,
            "byteLength" : 60936,
            "byteOffset" : 0
        },
        {
            "buffer" : 0,
            "byteLength" : 60936,
            "byteOffset" : 60936
        },
        {
            "buffer" : 0,
            "byteLength" : 81248,
            "byteOffset" : 121872
        },
        {
            "buffer" : 0,
            "byteLength" : 40624,
            "byteOffset" : 203120
        },
        {
            "buffer" : 0,
            "byteLength" : 19248,
            "byteOffset" : 243744
        },
        {
            "buffer" : 0,
            "byteLength" : 8,
            "byteOffset" : 262992
        },
        {
            "buffer" : 0,
            "byteLength" : 24,
            "byteOffset" : 263000
        },
        {
            "buffer" : 0,
            "byteLength" : 32,
            "byteOffset" : 263024
        },
        {
            "buffer" : 0,
            "byteLength" : 24,
            "byteOffset" : 263056
        }
    ],
    "buffers" : [
        {
            "byteLength" : 263080,
            "uri" : "data:application/octet-stream;base64,"
        }
    ]
}
