{
    "asset" : {
        "generator" : "Khronos glTF Blender I/O v3.2.40",
        "version" : "2.0"
    },
    "scene" : 0,
    "scenes" : [
        {
            "extras" : {
                "s_output" : "exporting...",
                "b_export" : 1,
                "export_path" : "C:\\Users\\18629\\Desktop\\",
                "b_bake_lightmap" : 0,
                "b_use_lightmapper" : 0,
                "b_renderer" : 1,
                "b_aa" : 0,
                "b_colorManagement" : 0,
                "b_settings" : 1,
                "b_player" : 1,
                "f_player_speed" : 2.4699997901916504,
                "b_raycast" : 1,
                "matlib" : {},
                "b_cubemap_background" : 1,
                "b_show_env_sky" : 1
            },
            "name" : "Scene",
            "nodes" : [
                0
            ]
        }
    ],
    "nodes" : [
        {
            "mesh" : 0,
            "name" : "Text",
            "rotation" : [
                0.49623924493789673,
                0.49623924493789673,
                -0.5037326216697693,
                0.5037326812744141
            ],
            "scale" : [
                10.159926414489746,
                10.159924507141113,
                10.159926414489746
            ]
        }
    ],
    "animations" : [
        {
            "channels" : [
                {
                    "sampler" : 0,
                    "target" : {
                        "node" : 0,
                        "path" : "translation"
                    }
                },
                {
                    "sampler" : 1,
                    "target" : {
                        "node" : 0,
                        "path" : "rotation"
                    }
                },
                {
                    "sampler" : 2,
                    "target" : {
                        "node" : 0,
                        "path" : "scale"
                    }
                }
            ],
            "name" : "Text",
            "samplers" : [
                {
                    "input" : 5,
                    "interpolation" : "LINEAR",
                    "output" : 6
                },
                {
                    "input" : 5,
                    "interpolation" : "LINEAR",
                    "output" : 7
                },
                {
                    "input" : 5,
                    "interpolation" : "LINEAR",
                    "output" : 8
                }
            ]
        }
    ],
    "materials" : [
        {
            "doubleSided" : true,
            "emissiveFactor" : [
                1,
                0.17283766400993983,
                1
            ],
            "name" : "Material.004",
            "pbrMetallicRoughness" : {
                "baseColorFactor" : [
                    0,
                    0,
                    0,
                    1
                ]
            }
        }
    ],
    "meshes" : [
        {
            "name" : "Text",
            "primitives" : [
                {
                    "attributes" : {
                        "POSITION" : 0,
                        "NORMAL" : 1,
                        "TANGENT" : 2,
                        "TEXCOORD_0" : 3
                    },
                    "indices" : 4,
                    "material" : 0
                }
            ]
        }
    ],
    "accessors" : [
        {
            "bufferView" : 0,
            "componentType" : 5126,
            "count" : 4179,
            "max" : [
                1.919751524925232,
                1.0399999618530273,
                0.2689855396747589
            ],
            "min" : [
                -2.9002490043640137,
                -1.0399999618530273,
                -0.4220145046710968
            ],
            "type" : "VEC3"
        },
        {
            "bufferView" : 1,
            "componentType" : 5126,
            "count" : 4179,
            "type" : "VEC3"
        },
        {
            "bufferView" : 2,
            "componentType" : 5126,
            "count" : 4179,
            "type" : "VEC4"
        },
        {
            "bufferView" : 3,
            "componentType" : 5126,
            "count" : 4179,
            "type" : "VEC2"
        },
        {
            "bufferView" : 4,
            "componentType" : 5123,
            "count" : 7668,
            "type" : "SCALAR"
        },
        {
            "bufferView" : 5,
            "componentType" : 5126,
            "count" : 2,
            "max" : [
                0.041666666666666664
            ],
            "min" : [
                0
            ],
            "type" : "SCALAR"
        },
        {
            "bufferView" : 6,
            "componentType" : 5126,
            "count" : 2,
            "type" : "VEC3"
        },
        {
            "bufferView" : 7,
            "componentType" : 5126,
            "count" : 2,
            "type" : "VEC4"
        },
        {
            "bufferView" : 8,
            "componentType" : 5126,
            "count" : 2,
            "type" : "VEC3"
        }
    ],
    "bufferViews" : [
        {
            "buffer" : 0,
            "byteLength" : 50148,
            "byteOffset" : 0
        },
        {
            "buffer" : 0,
            "byteLength" : 50148,
            "byteOffset" : 50148
        },
        {
            "buffer" : 0,
            "byteLength" : 66864,
            "byteOffset" : 100296
        },
        {
            "buffer" : 0,
            "byteLength" : 33432,
            "byteOffset" : 167160
        },
        {
            "buffer" : 0,
            "byteLength" : 15336,
            "byteOffset" : 200592
        },
        {
            "buffer" : 0,
            "byteLength" : 8,
            "byteOffset" : 215928
        },
        {
            "buffer" : 0,
            "byteLength" : 24,
            "byteOffset" : 215936
        },
        {
            "buffer" : 0,
            "byteLength" : 32,
            "byteOffset" : 215960
        },
        {
            "buffer" : 0,
            "byteLength" : 24,
            "byteOffset" : 215992
        }
    ],
    "buffers" : [
        {
            "byteLength" : 216016,
            "uri" : "data:application/octet-stream;base64,"
        }
    ]
}
